<svg xmlns="http://www.w3.org/2000/svg" width="500" height="500" viewBox="0 0 500 500" version="1.1">
	<path d="M 139.824 130.867 C 130.103 132.315, 121.849 133.804, 121.482 134.176 C 121.114 134.548, 122.179 135.558, 123.846 136.421 C 130.333 139.775, 130 135.938, 130 207.299 L 130 272.154 127.211 274.827 C 125.677 276.297, 123.540 278.036, 122.461 278.691 C 120.912 279.632, 126.067 279.882, 147 279.882 C 167.933 279.882, 173.088 279.632, 171.539 278.691 C 166.787 275.805, 164 272.144, 164.030 268.827 C 164.058 265.854, 164.178 265.713, 165.164 267.500 C 173.157 281.986, 198.731 285.842, 214.154 274.886 C 217.737 272.341, 218 272.453, 218 276.532 C 218 279.206, 218.510 280.253, 220.098 280.841 C 222.278 281.647, 258.696 276.682, 259.861 275.419 C 260.212 275.038, 259.882 274.507, 259.126 274.239 C 258.371 273.970, 256.346 272.495, 254.626 270.959 L 251.500 268.167 251 229.833 C 250.446 187.355, 250.645 188.636, 243.526 181.722 C 229.437 168.040, 201.982 167.815, 181.911 181.219 C 171.337 188.279, 166.546 197.887, 169.019 207.069 C 173.687 224.405, 198.647 223.231, 202.393 205.500 C 203.241 201.484, 201.665 196.454, 197.929 191.251 C 193.792 185.492, 192.783 181.754, 194.646 179.095 C 196.771 176.061, 199.012 175.133, 206.918 174.012 C 222.995 171.732, 240.303 178.082, 245.589 188.200 C 250.764 198.106, 242.391 204.380, 208 216.365 C 197.825 219.910, 187.289 223.769, 184.587 224.940 C 177.417 228.047, 170.575 233.416, 167.098 238.666 L 164.049 243.269 163.774 186.598 C 163.537 137.514, 163.299 129.799, 162 128.978 C 160.122 127.792, 160.937 127.723, 139.824 130.867 M 281.954 159.286 C 273.065 167.642, 260.890 173, 250.790 173 C 248.088 173, 247 173.431, 247 174.500 C 247 175.611, 248.167 176, 251.500 176 L 256 176 256 219.304 L 256 262.607 258.603 267.832 C 262.414 275.478, 270.511 280.911, 278.122 280.928 C 295.137 280.965, 343 279.645, 343 279.137 C 343 278.780, 341.640 277.886, 339.977 277.150 C 333.998 274.503, 334 274.523, 334 225.025 L 334 179.950 336.565 178.975 C 340.135 177.618, 343.974 177.758, 344.134 179.250 C 344.208 179.938, 344.171 182.376, 344.051 184.668 C 343.763 190.196, 346.911 197.088, 351.081 200.058 C 356.081 203.618, 365.305 203.987, 369.976 200.814 C 371.888 199.515, 374.515 196.888, 375.814 194.976 C 377.794 192.061, 378.115 190.532, 377.805 185.500 C 377.139 174.724, 371.090 169.458, 359.500 169.564 C 353.809 169.617, 350.817 170.321, 343.500 173.330 C 336.245 176.313, 334.306 176.774, 333.500 175.703 C 331.643 173.238, 329.544 173.265, 311.235 175.984 C 294.204 178.514, 289.752 179.648, 292.700 180.704 C 295.774 181.804, 299.025 185.428, 299.960 188.795 C 301.065 192.774, 301.428 265.801, 300.362 269.778 C 299.584 272.682, 296.730 271.993, 292.500 267.880 L 289.500 264.963 289.220 220.482 L 288.940 176 295.970 176 C 301.552 176, 303 175.691, 303 174.500 C 303 173.310, 301.556 173, 296 173 L 289 173 289 163.500 C 289 158.275, 288.663 154.016, 288.250 154.036 C 287.837 154.057, 285.004 156.419, 281.954 159.286 M 211.500 218.873 C 199.305 226.707, 195.471 233.589, 195.552 247.500 C 195.631 261.006, 199.796 268.370, 208.885 271.077 C 211.429 271.835, 213.315 271.842, 215.250 271.102 L 218 270.050 218 242.525 C 218 227.386, 217.887 215.004, 217.750 215.010 C 217.613 215.015, 214.800 216.753, 211.500 218.873" stroke="none" fill="#000000" fill-rule="evenodd"/>
</svg>